<svg version="1" xmlns="http://www.w3.org/2000/svg" width="1422.667" height="1422.667" viewBox="0 0 1067.000000 1067.000000"><path d="M527.9 106.3c-.2.3-3.8.7-7.9 1.1-4.1.3-8.8.8-10.5 1.1-6.1 1-9.1 1.5-11.5 2-1.4.3-3.8.8-5.5 1.1-11.4 2-33.2 8.7-48.9 14.9-90.7 35.9-160.9 109.8-186.7 196.6-1.6 5.5-3.6 13.2-4.5 17.2-.8 4-1.7 8.1-2 9.2-.6 2.9-1.2 6.4-1.9 11.5-.3 2.5-.8 5.8-1.1 7.5-.3 1.6-.7 4.1-.9 5.5-.3 2.4-1.8 12-2 13-.1.3-.5 3-1 6s-.9 5.7-1 6c-.9 4-1.6 7.1-2 10-.9 5.2-2.2 10.8-6.5 28.2-8.3 33.2-16.8 59.2-31.5 96.3-14.6 36.8-17.6 48-17.7 65-.1 23 9.2 39.3 27.6 48.1 6.5 3.1 17.2 5.9 31.4 8.3 7.7 1.2 12.5 4 14.7 8.7 2 4.3 2.2 5.4 3 15.6 1 14.1 1.6 19 3.6 28.6 8.9 41.7 31.4 68.8 68.9 82.9 24 9.1 38.1 22.3 43.6 40.8 1.8 5.9 1.9 10.9 1.2 43-.5 21.4 3.9 35.7 13.7 44.2 3.8 3.5 11.9 7.2 17 8 1.1.2 4.5.7 7.5 1.2 6.7 1.1 355.8.7 361.5-.4 22.6-4.1 31.7-14.8 34-39.7.4-4 .7-66.3.7-138.3 0-72.1.4-133.5.8-136.5 1.9-13.3 3.4-17.2 11.3-31 6-10.3 17.5-33.1 21.2-42 1.5-3.6 3.3-7.9 4-9.5 6.6-14.4 16.4-50.4 19-69.5.3-2.5.8-5.6 1-7 2.5-15.6 2.5-56 0-71.1-.2-1.3-.6-4.2-1-6.4-9.3-64.3-45.2-134.1-94-183-36.5-36.4-78.8-60.7-131-74.9-10.1-2.7-21-5.2-27-6-2.2-.4-6.2-1-9-1.6-4.9-.9-8.4-1.3-19.5-2.6-3-.3-7.1-.8-9-1-4.7-.6-51.5-1.6-52.1-1.1zm46.6 40.1c52.2 3.4 105.2 23.2 147 54.9 21.9 16.7 42.9 38.5 57.7 59.8 21.1 30.4 38.1 68.6 44.2 99.4 5.1 25.1 6.1 35.5 6.1 60.5 0 24.8-.5 29.7-5 54.5-.8 4.3-4.2 16.6-7.1 26-6.4 20.1-13.6 35.9-25.7 56.4-12.3 20.7-16.9 32.6-19.2 49.1-.8 5-.8 194.2-.1 231 .3 20.5.2 24.4-1.5 30.8-2.2 8.6-5.3 13-11.3 16-4.3 2.2-14.3 4-20.2 3.6-18.9-1.2-35.5-1.5-71.4-1.4-230.3.7-232.2.7-237-1.3-5.6-2.3-7.4-3.9-9.6-8.5-1.5-3.3-1.8-7.6-1.9-36.2-.3-42-1.5-48.8-10.5-57.7-5.5-5.4-13.5-9.5-34.4-17.8-26.9-10.6-34-14.7-46.2-26.9-18.1-18.1-25.1-38.7-26-76.1-.6-29.5-1.6-35.5-6.9-41-2.6-2.9-7.2-4.9-13.5-6.1-.8-.2-8-.6-16-.9-21.4-.8-25-1.3-30.7-4.1-6.5-3.1-8.4-6.1-8.9-13.8-.2-5.1.4-8.2 3.7-18.1 5.5-16.4 9.7-28 12.5-34.3 1.3-2.9 2.4-5.7 2.4-6.2 0-.6.4-1.8 1-2.8 5.7-9.9 26.1-72.8 30.4-93.4.3-1.3 1.6-7.5 3-13.8 3.1-14.4 6.3-32.2 8-45 .2-1.9.8-5.8 1.1-8.5 1.1-8 1.5-10.8 2-13.5.3-1.4.7-3.4.9-4.5.2-1.1 1.2-5.2 2.1-9 .9-3.9 1.8-7.5 1.9-8 1.8-8 10.2-30.5 15.6-41.9 29.9-63.2 87.5-113.1 158-136.9 11.7-3.9 27.6-8.3 33.1-9.1 2-.3 4.2-.8 5-1 1.5-.5 4.1-.9 19.2-3.1 1.9-.2 8.3-.7 14.3-1.1 6-.3 11-.7 11.1-.7.3-.3 12.8.1 22.8.7z"/><path d="M560.4 218c-10.8 1.9-22.6 5.6-30.7 9.6-15.4 7.7-30.9 20.8-40.9 34.5-4.3 5.9-5.2 6.7-7.5 6.3-1.5-.3-3-.7-3.4-1-1.1-.6-13.8-.6-17.4.1-6.8 1.3-15.7 5.1-20.8 8.9-5.6 4.2-13.1 12.5-14.7 16.1-.5 1.1-2 4.6-3.3 7.9-2.4 5.7-2.6 5.9-9.6 8.7-17.4 7-30.4 19.3-38.5 36.4-1.5 3.3-2.9 6.7-3.1 7.5-.2.8-.8 3.5-1.5 6-1.4 5.1-1.8 21.3-.6 28 3.9 23.4 21.5 44.5 44 52.9 10.3 3.8 18 4.9 37.4 5.1.9 0 1.2 7.4 1.2 33.5V512h-11.9l-1.9-4.3c-8.9-20.1-37.7-20.1-46.3.1-4.1 9.5-2 20.2 5.6 27.7 12.9 12.9 32.6 9.2 41-7.8l2-4 9.7-.1c15.1-.2 13.8 4.2 13.7-45 0-37.5-.2-41.7-1.7-43.6-1.6-2-2.9-2.2-17.2-2.5-17.1-.3-19-.6-27-3.7-30.7-12-45.7-46.4-33.3-76.3 1.9-4.4 7.1-13 10-16.5 5.9-7.1 20.3-15.9 29.2-17.9 5.6-1.2 7.7-3.3 8.5-8.3 1.8-10.9 10.5-22 21.6-27.2 8.5-4 19.6-4.7 28.5-1.8 3.8 1.2 6.6 1.7 7.6 1.1.9-.5 3.1-3.2 5-6.1 26.5-42.4 80.3-59.1 124.4-38.8 33.2 15.4 55.5 47.2 58.1 82.9.4 4.8 1.1 9.1 1.6 9.8.5.7 3.3 2 6.1 2.9 9.3 3 15.1 6.6 21.8 13.3 10.3 10.3 15.2 22.6 14.8 37-.5 17.3-8.8 32.1-23.4 41.6-7.7 5-14.5 7.1-26 8.1-7.9.7-10.5 2.3-10.5 6.5 0 4.7 3.6 6.3 12.3 5.5 13.5-1.3 22.2-4.2 31.3-10.3 12.2-8.3 20.9-19.7 25.5-33.3 1.7-5.1 2.2-9.1 2.3-18 .1-13.2-.3-16.1-4-24.9-4.4-11-13.2-22.2-21.9-27.9-5.2-3.5-14.6-8.2-16.2-8.2-.7 0-1.3-.6-1.4-1.3-.1-1.4-.3-3.1-1.3-10.7-3-21.5-13.7-43.1-29.6-59.6-14.6-15.2-35.4-27.1-55-31.3-13.5-2.9-29.2-3.3-42.6-1.1zM418.1 504.9c2.2.1 7.7 5.6 8.4 8.4 1.7 6.7.9 10-3.5 14.2-9.5 9.1-25.2-.3-21.8-13.1 1.4-5.6 8.7-10.7 13.8-9.8.8.1 2.2.3 3.1.3z"/><path d="M575 248.8c-5.4 4.5-2.3 9.9 6 10.7 19.3 1.8 31 6.9 44 19.2 8.2 7.7 11.3 8.9 14.3 5.5 2.8-3.1 2-6-3-11.4-13.8-14.7-33.6-24-54.1-25.3-3.8-.2-5.8.2-7.2 1.3zM644.2 295.1c-3 1.1-3.7 4.9-1.9 10.6 2.4 7.6 3.4 12.8 3.6 20 .1 4 2.4 6.3 6.1 6.3 4.4 0 6.3-3.6 5.6-10.2-1-9.3-1.5-12-3.2-17.7-2.3-8.2-5.3-10.8-10.2-9zM480.2 432.8c-6.4.6-8.2 8.8-2.5 11 1.6.7 9.5 1.1 18.6 1.1 8.8 0 16.1.2 16.4.4.3.4.6 53.2.3 81.8 0 4.4-.2 4.7-4 6.4-12.9 5.8-18.5 20.4-13 33.3 7 16.2 28.2 20.3 41 7.9s8-34.9-8.7-41.6l-3.3-1.3V484c0-45.7-.1-47.8-1.9-49.4-1.7-1.5-4.5-1.8-20.8-1.9-10.3-.1-20.3-.1-22.1.1zm46.2 112.8c3.1 1.9 6.6 8.6 6.1 11.3-.2.9-.4 2.4-.4 3.4-.1.9-1.6 3.4-3.4 5.3-2.8 3.1-4.1 3.7-8.3 4.1-6.3.5-10.8-2.1-13.3-7.8-5.3-11.9 8.4-23.5 19.3-16.3zM544 432.8c-2.4.2-5 .8-5.6 1.3-2.1 1.7-2.2 5.8-.3 8.3 1.8 2.3 2.2 2.4 18.9 2.4 9.4 0 17.4.2 17.7.5.3.4.6 19.9.7 43.4l.1 42.7-5.5 2.8c-11.3 5.7-16.4 17.8-12.8 30.2 5 17.4 28.8 23.5 41.6 10.6 7-7 9.6-17.5 6.5-26.5-2-6-8.4-13-13.7-15l-4.3-1.7v-46.6c0-25.7-.3-47.7-.7-49-.4-1.2-1.8-2.5-3.1-2.8-2.6-.7-32.3-1.1-39.5-.6zm41.2 111.4c8.1 2.4 11.8 11.4 7.8 18.6-2.7 4.8-6.6 7.2-11.7 7.2-14.5 0-18.2-19.6-4.8-25.6 3.7-1.7 3.9-1.7 8.7-.2zM602.6 433.5c-2.6.8-3.1 1.6-3.4 4.7-.5 5.8 2 6.8 16.4 6.7h16.9l5 .1v37.2c-.1 37.2 0 37.3 2.1 39.5 1.9 1.9 3.3 2.2 9.6 2.2 12.5-.2 12.3-.2 13.6 3.3 4.3 12.1 19.7 18.9 32.3 14.4 17.9-6.4 22.2-31.1 7.4-43.1-11.5-9.4-28.6-7.1-37.2 5.1-1.2 1.6-2.5 4.3-2.9 5.8-.6 2.6-.8 2.7-6.8 2.4l-6.1-.3-.1-36c-.2-43.8 0-40.2-2.6-41.6-2.7-1.5-39.8-1.8-44.2-.4zm88.9 72.2c6.7 1.9 10.1 11.3 6.6 18.1-6.7 13.1-26.5 7.1-24.8-7.5 1-9 8.6-13.4 18.2-10.6z"/></svg>