<?xml version="1.0" standalone="no"?>
<!DOCTYPE svg PUBLIC "-//W3C//DTD SVG 20010904//EN"
 "http://www.w3.org/TR/2001/REC-SVG-20010904/DTD/svg10.dtd">
<svg version="1.0" xmlns="http://www.w3.org/2000/svg"
 width="152.000000pt" height="152.000000pt" viewBox="0 0 152.000000 152.000000"
 preserveAspectRatio="xMidYMid meet">
<metadata>
Created by potrace 1.11, written by Peter Selinger 2001-2013
</metadata>
<g transform="translate(0.000000,152.000000) scale(0.100000,-0.100000)"
fill="#000000" stroke="none">
<path d="M1265 1431 c-59 -40 -98 -109 -99 -176 0 -45 5 -60 29 -93 17 -21 51
-67 78 -102 35 -46 47 -71 47 -96 0 -19 4 -34 8 -34 4 0 19 30 33 66 31 78 27
114 -19 178 -53 75 -65 105 -59 157 3 26 13 62 22 80 23 44 7 52 -40 20z"/>
<path d="M995 1388 c-117 -82 -173 -188 -145 -273 16 -49 70 -91 205 -160 134
-69 189 -111 206 -160 7 -19 16 -35 20 -35 10 0 17 64 15 147 -1 64 -4 75 -32
109 -17 21 -67 61 -112 89 -140 87 -153 109 -132 220 7 35 10 68 9 74 -2 5
-17 0 -34 -11z"/>
<path d="M702 1028 c-41 -20 -37 -97 6 -98 9 -1 -5 -10 -32 -20 -71 -28 -134
-93 -106 -110 30 -18 -112 -123 -199 -146 -42 -12 -44 -14 -22 -20 21 -6 22
-8 7 -14 -15 -5 -13 -12 18 -58 20 -28 36 -54 36 -56 0 -11 -145 146 -172 186
-25 37 -29 50 -26 98 5 68 29 106 79 121 30 9 42 8 72 -6 35 -16 57 -47 39
-53 -24 -8 -43 -30 -51 -58 -18 -64 47 -120 107 -92 38 18 53 54 49 113 -7
105 -70 173 -167 182 -66 5 -108 -9 -148 -50 -51 -52 -71 -103 -68 -172 3 -77
29 -118 130 -208 l76 -69 -20 -25 c-41 -52 -14 -119 52 -129 32 -6 41 -2 68
24 34 34 35 63 4 111 -17 25 -16 25 18 -5 47 -41 113 -72 190 -88 l63 -14 -59
-3 c-44 -3 -62 -9 -70 -22 -9 -15 -7 -22 13 -38 21 -17 22 -19 4 -19 -11 0
-44 -13 -74 -29 -46 -24 -139 -54 -174 -56 -5 0 -10 -13 -10 -30 l0 -30 395 0
395 0 1 22 c2 29 -10 37 -75 51 -55 13 -181 69 -181 81 0 4 5 12 11 18 8 8 8
17 0 32 -10 17 -22 21 -64 22 l-52 1 59 14 c33 8 84 27 113 44 30 16 50 23 43
15 -17 -20 7 -24 65 -10 94 22 140 54 235 165 30 36 69 77 85 92 17 15 26 28
20 29 -34 4 -198 3 -203 -1 -4 -3 -25 -40 -46 -83 -21 -43 -60 -100 -85 -126
-39 -41 -41 -42 -9 -6 37 43 73 104 65 111 -2 2 -15 5 -30 6 -14 1 -24 5 -22
8 2 4 18 5 35 2 18 -2 30 0 30 7 0 6 -7 11 -16 11 -17 0 -111 39 -133 55 -7 5
-31 27 -53 47 -21 20 -49 39 -61 41 -12 2 -7 4 11 3 19 -1 32 3 32 10 0 23
-82 94 -124 106 -22 6 -34 13 -25 15 9 2 21 15 28 29 13 29 2 57 -29 74 -22
12 -19 12 -48 -2z m-69 -235 c-7 -2 -21 -2 -30 0 -10 3 -4 5 12 5 17 0 24 -2
18 -5z m44 1 c-3 -3 -12 -4 -19 -1 -8 3 -5 6 6 6 11 1 17 -2 13 -5z m46 -1
c-7 -2 -19 -2 -25 0 -7 3 -2 5 12 5 14 0 19 -2 13 -5z m50 0 c-7 -2 -19 -2
-25 0 -7 3 -2 5 12 5 14 0 19 -2 13 -5z m44 1 c-3 -3 -12 -4 -19 -1 -8 3 -5 6
6 6 11 1 17 -2 13 -5z m-337 -170 c0 -2 -11 -3 -24 -2 -14 1 -23 5 -20 9 4 7
44 0 44 -7z m60 0 c0 -2 -11 -3 -24 -2 -14 1 -23 5 -20 9 4 7 44 0 44 -7z
m200 0 c0 -2 -11 -3 -24 -2 -14 1 -23 5 -20 9 4 7 44 0 44 -7z m70 1 c0 -2 -9
-3 -19 -2 -11 0 -18 5 -15 9 4 6 34 0 34 -7z m90 -1 c0 -2 -11 -3 -24 -2 -14
1 -23 5 -20 9 4 7 44 0 44 -7z m80 0 c0 -2 -11 -3 -24 -2 -14 1 -23 5 -20 9 4
7 44 0 44 -7z m60 0 c0 -2 -11 -3 -24 -2 -14 1 -23 5 -20 9 4 7 44 0 44 -7z
m-627 -1 c-7 -2 -19 -2 -25 0 -7 3 -2 5 12 5 14 0 19 -2 13 -5z m194 1 c-3 -3
-12 -4 -19 -1 -8 3 -5 6 6 6 11 1 17 -2 13 -5z m40 0 c-3 -3 -12 -4 -19 -1 -8
3 -5 6 6 6 11 1 17 -2 13 -5z m110 -250 c-3 -3 -12 -4 -19 -1 -8 3 -5 6 6 6
11 1 17 -2 13 -5z m-110 -80 c-3 -3 -12 -4 -19 -1 -8 3 -5 6 6 6 11 1 17 -2
13 -5z m210 0 c-3 -3 -12 -4 -19 -1 -8 3 -5 6 6 6 11 1 17 -2 13 -5z"/>
</g>
</svg>
